# xmcd
#
# Track frame offsets:
#	150
#	23793
#	55146
#	89946
#	112457
#	133727
#	151816
#	183752
#	201438
#	223546
#	243943
#	290240
#
# Disc length: 4176 seconds
#
# Revision: 1
# Processed by: cddbd v1.5.2PL0 Copyright (c) Steve Scherf et al.
# Submitted via: audiograbber 1.83.01
#
DISCID=bb104e0c
DTITLE=Barry White - Ballads
DYEAR=2013
DGENRE=Soul
TTITLE0=I've Got So Much To Give (single version)
TTITLE1=Hard To Believe That I Found You
TTITLE2=You Turned My Whole World Around
TTITLE3=I Love You More Than Anything (In This World Girl)
TTITLE4=Love Serenade
TTITLE5=Of All The Guys In The World
TTITLE6=I'm So Blue And You Are Too
TTITLE7=It's Only Love Doing Its Thing
TTITLE8=Dark and Lovely (You Over There) (radio edit) featuring Isaac Hayes
TTITLE9=Put Me In Your Mix (single version)
TTITLE10=Let Me Live My Life Lovin' You Babe
TTITLE11=Goodnight My Love
EXTD=
EXTT0=
EXTT1=
EXTT2=
EXTT3=
EXTT4=
EXTT5=
EXTT6=
EXTT7=
EXTT8=
EXTT9=
EXTT10=
EXTT11=
PLAYORDER=
